/* XPM */
static char *a3ebd03f867c4887de42b882d31b33821FFh8EYo2CSu2hKB[] = {
/* columns rows colors chars-per-pixel */
"64 64 256 2 ",
"   c #0B231D",
".  c #04262C",
"X  c #012D33",
"o  c #082B36",
"O  c #142C35",
"+  c #04343B",
"@  c #023B3D",
"#  c #09353A",
"$  c #18373A",
"%  c #19302C",
"&  c #263739",
"*  c #373B37",
"=  c #312F27",
"-  c #21251F",
";  c #483C33",
":  c #4E3A29",
">  c #593116",
",  c #3A463B",
"<  c #2A413C",
"1  c #1A4035",
"2  c #48453A",
"3  c #594738",
"4  c #57492E",
"5  c #795539",
"6  c #6C4A33",
"7  c #734414",
"8  c #023C43",
"9  c #013B4B",
"0  c #083946",
"q  c #173A44",
"w  c #0B3E52",
"e  c #233C45",
"r  c #293D46",
"t  c #084549",
"y  c #16454A",
"u  c #0B4453",
"i  c #0B4D5C",
"p  c #074756",
"a  c #1B4D59",
"s  c #164A56",
"d  c #18555A",
"f  c #09515D",
"g  c #2B444B",
"h  c #274648",
"j  c #364848",
"k  c #2C4C54",
"l  c #244B55",
"z  c #364C54",
"x  c #2C545B",
"c  c #26555A",
"v  c #395559",
"b  c #34524B",
"n  c #336059",
"m  c #054C64",
"M  c #075568",
"N  c #175768",
"B  c #055B74",
"V  c #165B75",
"C  c #174D64",
"Z  c #285A67",
"A  c #375B64",
"S  c #2D586F",
"D  c #18616B",
"F  c #07667A",
"G  c #176578",
"H  c #19737E",
"J  c #276568",
"K  c #34636C",
"L  c #3A646B",
"P  c #276676",
"I  c #376977",
"U  c #387378",
"Y  c #2B727C",
"T  c #1C615E",
"R  c #474A47",
"E  c #564B47",
"W  c #475549",
"Q  c #57544A",
"!  c #475858",
"~  c #575957",
"^  c #4F4D57",
"/  c #664C44",
"(  c #67574A",
")  c #765A47",
"_  c #665A56",
"`  c #705350",
"'  c #4B645B",
"]  c #586459",
"[  c #4F604E",
"{  c #686558",
"}  c #776758",
"|  c #736A50",
" . c #465C65",
".. c #555E64",
"X. c #525D75",
"o. c #675F67",
"O. c #486569",
"+. c #576868",
"@. c #5B766A",
"#. c #476A74",
"$. c #566D74",
"%. c #49737B",
"&. c #587479",
"*. c #676A66",
"=. c #756B65",
"-. c #687568",
";. c #777569",
":. c #677777",
">. c #787B76",
",. c #636E74",
"<. c #413C42",
"1. c #B06F12",
"2. c #905335",
"3. c #B05228",
"4. c #9B683A",
"5. c #B07035",
"6. c #9A5612",
"7. c #D06F15",
"8. c #EF7819",
"9. c #D77231",
"0. c #F07832",
"q. c #C9591A",
"w. c #865B46",
"e. c #8C594B",
"r. c #966A47",
"t. c #866A57",
"y. c #88735B",
"u. c #967556",
"i. c #906A4E",
"p. c #A8774C",
"a. c #B67848",
"s. c #A97A57",
"d. c #B57D56",
"f. c #AC6C50",
"g. c #877868",
"h. c #987C66",
"j. c #887B74",
"k. c #967B77",
"l. c #8B6C64",
"z. c #A47A66",
"x. c #A9766B",
"c. c #CB7649",
"v. c #E97748",
"b. c #4F8275",
"n. c #768478",
"m. c #738771",
"M. c #B88127",
"N. c #D38F12",
"B. c #FA8518",
"V. c #F89011",
"C. c #F2AF11",
"Z. c #CE8B38",
"A. c #FC8826",
"S. c #FE9535",
"D. c #F8902F",
"F. c #F2B030",
"G. c #D7A606",
"H. c #F9CC14",
"J. c #FFE719",
"K. c #FFF60F",
"L. c #FCD739",
"P. c #F9CB2A",
"I. c #FDEC2D",
"U. c #A9815D",
"Y. c #B88459",
"T. c #B98B4E",
"R. c #89836A",
"E. c #998268",
"W. c #888576",
"Q. c #998777",
"!. c #89947A",
"~. c #A88468",
"^. c #B78966",
"/. c #B8936C",
"(. c #A58974",
"). c #B78D72",
"_. c #B89477",
"`. c #A69677",
"'. c #AC966A",
"]. c #C88448",
"[. c #C68957",
"{. c #C9915B",
"}. c #D7975A",
"|. c #D4914D",
" X c #FB9948",
".X c #E69A5A",
"XX c #ED924F",
"oX c #FCB949",
"OX c #FCA85A",
"+X c #FCB756",
"@X c #EFA94B",
"#X c #C48C66",
"$X c #C79569",
"%X c #D69967",
"&X c #C79875",
"*X c #CF9A76",
"=X c #EA9D6B",
"-X c #D5A378",
";X c #D2A76D",
":X c #E6A766",
">X c #FAA867",
",X c #FCB467",
"<X c #E8A777",
"1X c #FEB778",
"2X c #F1B175",
"3X c #D5AC52",
"4X c #FFD65A",
"5X c #FECD4A",
"6X c #FBE849",
"7X c #FEED50",
"8X c #FFC667",
"9X c #156A85",
"0X c #137082",
"qX c #236A85",
"wX c #27738A",
"eX c #397588",
"rX c #367189",
"tX c #477887",
"yX c #567A84",
"uX c #447B90",
"iX c #647D85",
"pX c #707F82",
"aX c #997F83",
"sX c #388488",
"dX c #59828C",
"fX c #578695",
"gX c #488393",
"hX c #678589",
"jX c #768588",
"kX c #708F93",
"lX c #6996A5",
"zX c #4D8EA2",
"xX c #888A87",
"cX c #889788",
"vX c #969887",
"bX c #938D8E",
"nX c #A89484",
"mX c #B29587",
"MX c #90A895",
"NX c #B8A497",
"BX c #B5A28A",
"VX c #899CA4",
"CX c #99ABB6",
"ZX c #91AFAD",
"AX c #AEABAF",
"SX c #C59D84",
"DX c #C9A795",
"FX c #D2A98D",
"GX c #FBB789",
"HX c #F8B799",
"JX c #EBAE8D",
"KX c #D1B1AE",
"LX c #F1BAA9",
"PX c #E79D89",
"IX c #F8C58D",
"UX c #8BB0C2",
/* pixels */
"i t p C i 9 8 p p f M M M M F B 0XF B F F F F F D p s s S 9 0 0 . . X o o O r O.= Q } h.) &X#X$X]..X%Xr.6 4 E 2 ~ *.o.^ ..! <   ",
"i u u M u 9 8 9 f m M M M B B B B F F F 0X0XH B T s + y 0 w o o 0 0 q g k h r j +.= E y.y.2.p.[.}.[.=X-X/.) 3 E ^ ^ ^ ..! +.j % ",
"C u t i p 9 0 9 p f M M M F F F 0X0XH F F sXsXsXU dXO.x q 0 X 9 . . X q l g g R >.2 = ) ~.u.7 4.}.a.f.[./.~.t./ ; 3 ^ E j +.] & ",
"C u w u 9 0 0 9 f M M B F F F H sX0XH H F T f T y n O.$ # . 0 0 q O 0 q l g j ! ] 3 ) i.7 i.4.4.].c.a.c.Y.&X'.h.6 = E <.Q , ! b ",
"u u w u 9 9 9 9 m N B M M B 9X9XH F G D T T T 1 n W <   $ $ y q 0 l A A z r z ,.R =.h.: 4.r.T.%Xc.c.}.<X$XY.U./.h.> : ( *.% j z ",
"9 9 w 9 9 9 9 9 C N m m m B B B M F G f T b.m.m.kXm.W , $ v l x O.l q g #.&...~ ;.( y.u.U.Y.Y.].a.].%X:X}.}.Y.T.).5 > ` _ ~ j e ",
"9 w u w 9 9 9 9 C M m m m B B B M B H Y U b.m.b.!.m.2 b < k h A x L X.A  .z ..j.=.y.y.'./.T.6.$X|.}.%X}.}..X%X].d.d.5 ) Q ;.z % ",
"9 p i p 9 9 9 9 N V V B B 9X9X9XH F T sXb.n b.MXZXm.[ b $.k y q . q l  .X.+.+.;.Q.} u.r.&XT.T.[.%X].:X>X:X5.|.:Xc.5.r.l.=.^ r z ",
"M 9 D t 8 p i 9 f G D G wXF m F B m m u n @.m.b.[ W j r O q x A k v z O & +.;.;.k.h.i.u.^.$X{.{.[.}.5.:X.XZ.1.].<X[.> u.g...& e ",
"m p P f t p N p D H D wXF G m B m V V u n @.m.m.W & e e q $ q O e r r r j *.;.;.=.h.~./.Y.4.5.:X[.5.].}.:X:X.X1.9.GXs.> g.-.& q ",
"P D M i f f N t Y P Y Y N V D m m m d T b.MXm.m.! < e r h q y q $ & ^ ^ ~ -.=.} h.E.~./.Y.4.p.{.JX].6.a..X,X|..XT.%X*X5 } *.r r ",
"eXY i i i i N 0 U J gXN Y N Y m N p c kXZXZXm.[ b b z x S A O.! jX>.:...Q ~ _ } h.(.~.s.U.Y.a.a.d.<XT.5.|.IXZ.|.:Xa.$X~.( ! ^ z ",
"wXY i C i u Z C I U gXa gXc Y K S Z dXZXMXMXm.[ % h A l q e r & = b ;.vX!.j.} y.t.~.~.s.U.Y.d.Y.#X#X-X%X;X2X:X5.|.;XU.w.;.] j v ",
"rXqXi i w s a a #.fXyXL dX#.I dXtXkXZXcXm.cX!.[ h +.yXA k r r j , Q ;.;.;.g.g.Q.(.(.x.~.z.p.s.^.JX#Xd.GX<X;X:X:X{.;Xu.4 Q.~ g v ",
"rXV w w a Z q s yXkXkXyXdX&.&.hXkXMXm.m.m.!.-.,  .$.O.A  .! W ] [ { ;.m.Q.`.Q.(.(.E.i.i.s.s.p.Y.^.JXd.JX<X8X;X[.%XU.u.6 { { j h ",
"w i w a w a 0 Z yXyXVXkXkXO.yX%.lXkXm.m.!.R.4 , *.X.yXiXVXkX:.jXcX>.-.| { } _ ) l.l.} 5 i.z.x.^.)././.IX-X^.8X4.T.T.U.) * n.< $ ",
"i C y h x L 0 K fXlXjXkX:.hX#.uXlXyXO.@.m.m.: 4 E :.VXCXCXCXCXCXCXUXkXaX=.` / <.<...^ o.E l.x.e.x._.).FXJX$XGX%X4./.u.4 - m.v o ",
"C C y y b Z u eXfXkXn.xX:.b.rXzXuXuXx [ m.| 4 m.aXAXAXCXCXCXCXCXUXUXCXbXbXk.o.R ^  .r R E } z.u.t.Q.(._.&X-XJXY.U.r.u.2 = [ :.h ",
"N i y y k Z 0 tXzXlXm.jX,.&.U gXuXtXx ! !.R.R._.NXAXAXCXAXCXCXCXUXCXVXAXAXNXj.~ ..X.v z ^ E t.h.} g.E.E.^.FX-XY.$X5 E.4 = & &.v ",
"C i c v v x 0 I fXkX&.jX+.O.K uXI I g ! !.m.!.DXAXAXAXAXAXAXKXUXCXCXAXAXNXNXbXaX^ +. .* R 4 w.(.g.=.g.g.h.).).&X&Xt.y.| = % v x ",
"N p a L A c # I yXfXiX:.+.O.K tXK c y -.R.!.`.BXNXDXKXAXKXAXAXAXAXAXAXNXDXNXNXbX+.+.O.% * = / y.j.*.j.=.} z.~.BX_.y.E { W & q k ",
"N t s A x v q #.yXhXiX:.@.$.I %.A k b m.R.;XBXFXDXKXKXKXKXKXKXKXKXKXKXDXDXDXNXNX=.+.+.W E Q ) ` _ *.W._ 3 t.h.E.`.h._ E :.h q k ",
"V p a Z x A q #.yXiX&.$.&.&.#.O.k h W | Q.SXFXFXKXKXLXLXKXKXKXLXKXKXKXPXDXDXDXNX~ ^ +.+._ =.` l.~ *.>._ 2 ( t.g.nXW.;.^ jXr r e ",
"G f Z K v O.g O.iXhX$. .&.:.+.W j R { ( '.FXFXIXLXLXLXLXLXLXLXLXPXLXPXLXPXFXDXBX;.Q ] { ; ; / k._ *.=.Q 2 3 } g.j.j.*.~ yXq e q ",
"N Y u c O.A ! ! :.$.&.$.v +.+.] W.} y.u.-X-X<X<XGXJXHXHXHXLXHXHXLXHXHXHXJXPXSXSXQ.nX=.=.E 3 ` / } 2 =.E ; ( _ g.=.~ +.! !  .q 0 ",
"C rXZ L A ! R ..,.&.X.&.$.:.@.W.BXQ.~.^.PX2X2XGX2X2X1XGXGXIXIXGXGXGXGXGXGXJXJXFXFXDX} } ) e.l.l.( ) g.3 ( ( : Q ;.*.,.! k x q q ",
"N P Z I O.,.R Q >...z yX&.m.{ NXFX/.U.[.<X=X>X>X,X,X>X,XGX1X8X1X1X1X1X1X2XGXJXPXPXSXe.f.i.z.x.f.h.w.z.) ) t./ ; Q _ ,.! r l e w ",
"N C Z Z $.jXQ ( ;...r ,.' m.| BXFX$XT.|.>X>X>XOX+X+X+X,X8X8X8X8X,X,X,X,X>X1X>X>X=X<X#Xd.#X#X*X#X#Xr./.u.w.i.t._ ; <.! ! g q l l ",
"a s N A O.>.} g.j.<.r yXr ;.| ;X;X3XZ.}.,XOXOX+X+XoX5X5X4X4X8X4X8X5XoX+XOXOXOX>X>X>XXX}..X%X<X=X[.[.%Xf.r.2./ E.Q 2 j v l q q y ",
"d u s K $.n.j.nXl.* ^ yXr j.R./.:X}.1.|.OX XoXF.oXP.5X5X4X4X7X4X5X5XF.oX X X X X XXXXXXX.X.X=X}.=X|.}.c.f.2.5 ) j.=.R b z 0 # t ",
"s 0 0 #.$.>.Q.BXk.R ..$.^ W.u.;X8X3X1.@XoX XF.oXoXL.5X6X7X7X7X6XL.P.F.C.F.S.S.S.S.S. XXXOXOX>XXX>X9.v.c.a.d.u.> h.W.W h k q # y ",
"+ t a dX+._ (.DX(.` +.+.X.n.y.;X8X3X1.|.@XF.F.F.P.L.L.6X7X7X7X6XL.P.P.F.C.F.S.S.S.A. XA.S. X X X0. XOXc.XX%Xd.5 ) ;., % h 1 y s ",
"q 0 w S A ~ `.-Xs.i.2 :.b ~ R.'.3X8X5.5.:XP.G.H.P.P.5X6X6X7X7X6XI.P.H.P.F.D.V.S.A.D.D.D.S.S.S.D.D.A.A.S.v.v.v.2.6 ( { b 1 @ 1 t ",
"& q C rXA ~ E.*Xa.p.( +.z +.m.`.BXT.u.p.3XF.G.H.P.L.L.I.I.6X6XI.I.J.H.H.C.C.V.V.A.A.A.A.B.A.B.B.A.8.0.0.v.v.v.3.p.5 ( -.@.< 1 1 ",
"r r w rXS ~ u.-XY.u.;.,.&.:.=.R.!.E.~.w.6.3XP.G.H.H.I.I.I.K.K.J.J.H.H.C.C.V.V.V.8.8.8.8.B.A.B.9.0.0.v.0.v.v.v.c.f.6 ; { *., % & ",
"z A s I x z | /.&Xi.;.$.jX&.~ R.R.!.bX) > M.F.G.H.H.I.I.K.K.K.K.H.C.C.C.V.V.V.B.8.8.8.q.9.7.7.q.3.3.c.c.3.f.x.f.i.) ) ;.;.] , , ",
"e x Z tXA z 6 u.FXE.{ < #. .Q >.`.vXaXl.5 7 M.F.H.H.J.J.K.K.K.K.C.C.V.V.V.8.8.8.q.q.q.3.3.3.6.2.7 6 2.e.2.5 e.e.| | | | { ] Q 2 ",
"$ k S rX#.! { u.BXQ.-.< z v +.*.cXMX;.j.Q.4.6.1.G.G.H.J.I.K.K.K.C.V.V.8.7.q.q.q.3.3.3.2.2.2.2.6 ` / / / / / / / 3 2 , W [ [ [ , ",
"o k A a #.b | R.R.Q.n.A k x +.] ;.xXj.} E./.4.6.1.G.G.J.I.I.J.H.C.N.7.1.q.q.6.6.3.3.2.e.6 e.e._ l.o._ _ E E E / 3 2 2 W [ [ [ [ ",
". l A s K < W ] R.n.m.#.h h $.-.m.W.bX_ ) E.3X:XN.Z.N.C.H.L.G.F.Z.].5.1.5.5.3.3.f.e.e.e.` ` } ` E ^ _ _ <.E <.<., W W , , , W , ",
"$ $ y s y 1 < , [ -.hX&.x k ! @.m.R.*.2 3 u.;X:XGXOX7.6.1.N.1.1.5.4.2.2.2.e.2.` 2./ ` ` ` ` ^ ^ E / E / E ` ` / _ { o.o.o.o.,.,.",
"# # d c y h h < b ! +.%.$.#.+.+.m.| o.^ : 6 &X<X=X1X XD.C.F.|.T.#X^.x.f.f.f.x.f.x.x.aXx.k.bXaXaXaXk.aXk.aXk.xXbXj.xXaXVXbXVXxXxX",
"# @ y c d l h < b b v O.#.%.&.:.m.2 +.o.= 4 ^.JXPXPX>X+X5X@X}.$X-X$X$X[.[.#X$X%X#X*Xx.*X)._.).).aX).(.nXbXQ.!.bXbXbXxXpXpXhXyXyX",
"y @ t y d c d y y c x L ' O.&.:.[ b ..$.<.; i./.PX<XXX@XoX@X/.$X*X#XY.Y.Y.{.%X%X#X%XPXc./.$X).^.x.aXE.bXnXvXvXcXbXjXiXpXkXfXfXfX",
"s 8 t s d T K J y c x v v  .$.iX..X. .z R ; ( z.PX=X.X@XoX3X^._.#X^.f.d.d.c.c.d.c.Y.Y.d.d.).).).SXmX`.vXMXcXcXkXjXiXiXiXyXuXrXY ",
"8 t s d y T U tXU J Z k g z  .$. .yXz r j R / i.*X<X+X+X@X3XU._.).d.s.d.#X#X[.d.[.d.d.p.s.d.).&Xx.k.g.R.jXcXMXZXlXiXyXS I P G Y ",
"+ + t d s d P Y gXtXL v h r z v  .tXO.z < j Q t.^.%X3XF.3XT.~.`._.^.^.d.d.[.#X{.$X#X^.^.x.h.z.~.mXmXQ.W.;.-.:.,.bXiXX.S S I uXzX",
"+ X @ s d T D N D U dX%.! h r r v X.b.@.j * ~ t.s.T.Z.M.T./.BXKXSX).^.s.p.r.p.U.s.p.d.^.s.w.5 ) l.t.g.;.;.>.-.,.,.X. .z k w w s ",
"X # # y y T T J Y U U b.@.#.z $ g $.hXhX+.h * 5 u.;XT.5.4.i.Q.E.(._.).~.f.u.s.Y.s.s.Y.U.u.U.~.~.z./ 3 } g.=.{ ^ W j r g j v A l ",
"o o # + @ t T T T J U %.%.&.#.! & W +.%.&.O.W 2 ) '.^.^.~.u.Q.g.k.).mX_.(.^.~.~.&X&X/.~.u.i.4.) w.3 ; ` _ _ =.-.*.+.O. .O.#.L k ",
"o X X X @ @ t T T J b.b.yXyXyX&.& j ! O.$.&.-.Q y.'.Y.U.s.t.(.`.E.(.(.x.(.)._.&XFXSX_.).~.U.U.~.(.j.j.k.j.>.>.>.+...j e q q o . ",
"# + X X   @ t t n J J U %.yXyX,.@.W b v O.&.:.Q R._./._.'.E.(.nXnXQ.g.t.h.E.(.)._._.'.E.E.u.E.E.k.=.=.=._ R R & & r O O . o O # ",
"# @ @ X X   X @ d c J L O.%.%.+.[ *.n.b.k $ ! -.m.E.E.~.E.u.R.Q.NXQ.=./ 3 / ) | } t.y.E.E.g.y.;.Q E E ~ ~ ^ ....iXpXkXiX&. .A l ",
"t @ @ @ @ X   X @ y l c Z K L O.b.] @.dX%.v k h ] | | | } y.R.!.>.W.xXbXvXj.} { | } ;.W.Q.j.g.W.=.*.*.*.^ * * r O r r r e q q o ",
"t @ @ @ @ X   X . # y y y s c c ' ' O.@.dXU x h b ] m.R.!.W.;.;.>.>.{ ] ~ { ;.n.;.;.=.;.-.{ =.>.*.~ *.>.,.~ ! ....^ k r e e q O ",
"y t @ t t @ X + . # # # @ @ t 1 h v b x I %.K Z h ' ' ! [ [ ] *.:.:.:.pX,.+...~ +.] +.-.>.-.:.>.jX*.+.n.jX:.:.jXiX$.X. .X.X.z r ",
"@ @ t t t y # X + + # 0 @ @ + X % 1 y q y N Z C c c x O.' ! b ' +.$.$.&.:.hXhXiXiX,.&.O.+.$.$. .' ! ! +...z <.r r ^ ^  .v r r r ",
"t t @ @ t c a # # # y y y 0 t s y x K c t 8 u s Z c c A L n v A yX&.%.%.&.yXyX&.#.#.$.&.&.hXiXyX! z W ! O. .^ r z g r q O . . O ",
"T T t + @ a d t t t y c c c a c l c K L K a s t w w u c Z Z K #.%.tX#.#.#.%.tX%.#.tXyXyXkXlXlXkXO.v z k g h q e . . . O O . . . ",
"J T d 8 t t d d y y s a d c T c c l y K tX%.S a w 0 0 s s c Z I K K I I eXtXrXI S I rXtXtXyXiXyXyX#.x h q # q 0 q 0 o q q w l z ",
"D d d f f d d T d J J s y a Z Z K x c x L v L L K Z c d a s s C Z Z Z Z S I S N rXtXuXuXuXuXfXlXlXfXuXyXuXyXuXlXtXrXrXrXqXl C S ",
"T t t t T d t t t J tXI d a l c A O.O.O.v b ' O.#.#.L K Z Z Z S P J N N N V P V V S S N S S S rXrXrXeXeXuXuXuXuXrXrXuXuXtXqXC C ",
"t @ @ 8 t t t p t d J U K Z s y x A O.] ] ] ] ' ' O.K K K I I U Z V N C C N V V V V V V C i C S qXqXwXqXqXV 9X9XqXwXwXqXV 9XqXqX",
". + t @ @ t T D d t X t Z c x x x n ' b b ] -.:.' O.L A A Z Z N J Z N C m m m p m m C C C i C V C V V 9X9XqXqXrXqXwXrXqXqXqX9X9X"
};
