/* XPM */
static char *_3739b30d35d4f72aece7f0fb23f774fCltNYOTjLorOz9KT[] = {
/* columns rows colors chars-per-pixel */
"64 64 245 2 ",
"   c #020103",
".  c #0A0206",
"X  c #0B0905",
"o  c #02020A",
"O  c #0B040A",
"+  c #0C0A0B",
"@  c #05090A",
"#  c #120C0D",
"$  c #180C0C",
"%  c #1B110F",
"&  c #040514",
"*  c #1D1314",
"=  c #171316",
"-  c #140D14",
";  c #251A1A",
":  c #2A1C1C",
">  c #231617",
",  c #381F1B",
"<  c #27221F",
"1  c #30211E",
"2  c #070C24",
"3  c #161524",
"4  c #121830",
"5  c #261E27",
"6  c #272522",
"7  c #2B2523",
"8  c #2C2926",
"9  c #2E2C29",
"0  c #322424",
"q  c #342D2B",
"w  c #3B2C2C",
"e  c #352927",
"r  c #2F302B",
"t  c #34322D",
"y  c #3A302E",
"u  c #3C2D31",
"i  c #363331",
"p  c #3B3332",
"a  c #3C3539",
"s  c #2A293D",
"d  c #432E2D",
"f  c #433434",
"g  c #4A3635",
"h  c #46393B",
"j  c #4B3B3B",
"k  c #463738",
"l  c #513E3D",
"z  c #553936",
"x  c #41322D",
"c  c #743836",
"v  c #59423D",
"b  c #4E403F",
"n  c #34354A",
"m  c #483E44",
"M  c #4D4346",
"N  c #544343",
"B  c #594646",
"V  c #554A4A",
"C  c #5B4B4C",
"Z  c #564748",
"A  c #5E504F",
"S  c #5D4E51",
"D  c #554A53",
"F  c #5D5252",
"G  c #5E585A",
"H  c #474656",
"J  c #614D4D",
"K  c #6C4C49",
"L  c #67514E",
"P  c #624F50",
"I  c #645454",
"U  c #6A5656",
"Y  c #655659",
"T  c #665A5A",
"R  c #6B5B5B",
"E  c #6B5759",
"W  c #715E5E",
"Q  c #775758",
"!  c #764D4B",
"~  c #78605E",
"^  c #6D5E61",
"/  c #655C62",
"(  c #745F62",
")  c #6E6162",
"_  c #676163",
"`  c #736263",
"'  c #796666",
"]  c #766669",
"[  c #7A666A",
"{  c #74696C",
"}  c #7B6A6B",
"|  c #7B6D73",
" . c #786B77",
".. c #7E7276",
"X. c #7C7279",
"o. c #706B71",
"O. c #555367",
"+. c #885856",
"@. c #8D5451",
"#. c #8B615F",
"$. c #865F62",
"%. c #8B6565",
"&. c #826C6C",
"*. c #886869",
"=. c #936D6D",
"-. c #9A6967",
";. c #9E736E",
":. c #826E74",
">. c #8A6D74",
",. c #966E73",
"<. c #847375",
"1. c #83757C",
"2. c #86797D",
"3. c #8B7B7D",
"4. c #8C7376",
"5. c #9C7574",
"6. c #9C7A7B",
"7. c #957778",
"8. c #A46A66",
"9. c #A4726D",
"0. c #A57373",
"q. c #AC7A75",
"w. c #A47C7B",
"e. c #AC7D7B",
"r. c #A67974",
"t. c #B37C7B",
"y. c #AB6F71",
"u. c #A7817E",
"i. c #B4827D",
"p. c #C4867F",
"a. c #867C82",
"s. c #8C7C83",
"d. c #8A7A85",
"f. c #927D84",
"g. c #977D86",
"h. c #A87E81",
"j. c #B67E82",
"k. c #8E8186",
"l. c #8D828A",
"z. c #828081",
"x. c #938285",
"c. c #94848C",
"v. c #9A868C",
"b. c #94898D",
"n. c #9C8A8D",
"m. c #998385",
"M. c #968591",
"N. c #9A8692",
"B. c #9B8B93",
"V. c #9E8E99",
"C. c #968B93",
"Z. c #9E9195",
"A. c #9E929A",
"S. c #959192",
"D. c #868291",
"F. c #A38384",
"G. c #AC8384",
"H. c #A4858B",
"J. c #A38A8D",
"K. c #AC8B8C",
"L. c #AB878A",
"P. c #BA8382",
"I. c #B38B8C",
"U. c #B78886",
"Y. c #A8918F",
"T. c #BA918D",
"R. c #A28C94",
"E. c #AA8C93",
"W. c #A38F99",
"Q. c #AA8D99",
"!. c #A38692",
"~. c #B38E92",
"^. c #A49296",
"/. c #AB9295",
"(. c #A4939B",
"). c #AB949C",
"_. c #A6999E",
"`. c #AB999D",
"'. c #AD9895",
"]. c #B49394",
"[. c #BC9593",
"{. c #B7999A",
"}. c #A696A1",
"|. c #AB96A1",
" X c #A49AA3",
".X c #AC9BA3",
"XX c #AD9EA8",
"oX c #A59BA8",
"OX c #B39CA5",
"+X c #BA9DA4",
"@X c #B39EA9",
"#X c #BA9EAA",
"$X c #B197A2",
"%X c #AEA1A6",
"&X c #B3A2A6",
"*X c #B5A3AB",
"=X c #BAA5AD",
"-X c #BAA9AD",
";X c #BBA3A6",
":X c #BCA7B1",
">X c #BDAAB2",
",X c #B7A9B3",
"<X c #9F99A7",
"1X c #C38E8C",
"2X c #C98988",
"3X c #C7928D",
"4X c #C58D91",
"5X c #C49592",
"6X c #CC9593",
"7X c #C49995",
"8X c #CA9996",
"9X c #C49C9B",
"0X c #CD9D9B",
"qX c #CE9698",
"wX c #D39D9B",
"eX c #D29795",
"rX c #CBA29C",
"tX c #D2A29D",
"yX c #D69FA0",
"uX c #CCA4A3",
"iX c #C6A7AA",
"pX c #D3A4A1",
"aX c #D4A8A5",
"sX c #D3ACA9",
"dX c #D9ABA8",
"fX c #C1ADB5",
"gX c #C4AEB9",
"hX c #C0A6B1",
"jX c #C6B1BB",
"kX c #CBB4BD",
"lX c #C9B3B4",
"zX c #D5B7BB",
"xX c #DCB0AD",
"cX c #E4B4B2",
"vX c #CCB7C3",
"bX c #D3BBC4",
"nX c #DBBDC3",
"mX c #D4BDCB",
"MX c #D8BDC8",
"NX c #DCC1C6",
"BX c #DCC1CA",
"VX c #D6C1CA",
"CX c #DCC6D2",
"ZX c #E2C4CB",
"AX c #E6CFD9",
/* pixels */
"X X X X X X + X # X < % # # X $ ; < e w w e w e 7 5 0 0 7 : ; * e 0 > % * % % % % $ > * * : * * ; > ; ; > ; ; ; ; 1 < ; ; > ; ; ",
"< < < < 6 6 6 6 8 6 V G V { ` &.u.n.'.`.`.J.c.3.x.3.:.} { ` _ I R `.{ p p V V A A V A V A G F Y T R T R ) ) ` ) ` ` } ) ` ` ` ' ",
"6 6 7 7 8 8 7 7 t 8 y T T ) ' u.S.'._.b.x.k.a.2.1...| { ) T G V N { ^.F f b V A A A C F F I I Y T ) T ) ) ) } ` ) ` | } } ' ) W ",
"1 1 7 7 7 6 7 7 < 8 8 w T <.^._._.l.u.u.u.X.} | { { | | o.) T T j y u.S.A b b A V V S F I F F Y I T R R R R { ` { ` } ` ) ] ` } ",
"7 e 9 e q q q q t r } <.^.`.Y.Z.x.x.x.3.| } | :.2.1.1.1.1.1.2.<.] T C Z.x.b V A N C P C S I Y F I I ` T U ^ R ] ` R ] ( W ` R ` ",
"0 8 q q 9 u q u t r u.&X'.^.k.u.f.1...] | s.d.:.s.X.| 1.1.a.z.1.s.2.] <.`.` b V N N C C C F S I F F ` T U ^ E ] ` ^ [ [ ` R C J ",
"7 5 8 9 9 q q u t e v S.n.<...<.] ^ ( 2.f.|  .d...:.d.b.c.l.k.a.a.3.b.3.u.^.I v C l C B Z S N U F P R R R ^ E ' ( E U P J B C I ",
"7 7 0 7 5 7 7 q t t 8 p L ..{ ` Y ] 2.s.1.2.d.d. .d.W.}.B.c.c.b.n.c.c.z.2.Z.^.N C j J C C I b T C S Y R R E I E P S C B J I ( &.",
"9 9 6 8 9 9 8 8 t 1 t q 1 k I ) ` a.k...1.:.f.d.( V.(.M.b.N.C.C.N.n.b.C.x.x.^.x.j N C B N J C C A I R R R L A L P P U W ' ' } &.",
"6 6 6 9 9 q 8 8 t t t y p e 8 V 2.b...| ..f.N. .d.R.V.V.W.v.c.C.C.^.N.n.B.x.R.'.' l l J U C I I R R I L A A A A R R ( ' ' ` ' &.",
"6 6 6 6 7 8 8 8 8 9 8 8 i 8 t ..k...X.a.a.c.f.X.W.W.V.(.N.b.Z.N.b.A.C.c.W.n.n.^.R.C g B V J A U I I A A A L R ~ W ( ' } &.} } &.",
"6 9 9 9 r 9 t i t i i 8 8 < t A G { X.X.B.V.f.d.(.@X(.B.}.A.Z.A.A.Z.(._.B.n.m.v.`.m.f N C C C U U L I I U W ) ~ ` ( ` ' &.&.&.} ",
"9 9 t t t t t i p t 8 + X   X     X 7 2.b.Z.d.M.oX}.V.(.A.A._.S.A.C.V._.A.B.n.n.m.'.} 0 B L V A I I U T R ) R ) ' ' ` } &.&.} ] ",
"9 9 q t t t t t i t 6                 # z.S.X.}.}.}.%XoXB.B. XA.S.oX XA.}.`.^.v.3.v.n.A 1 C I I F J I T R R ` ' ' ' } ' } } ' ' ",
"e e q t y t i i i a i + X               + 3 o m o.d.D = - + = a / M.A.B.Z.B.R.v.J.<.n.7.T e R A T I U R T U R ` ` ` ' ' ' ' } } ",
"r r e t y t t i i p i X                 . 5 X.X.= = O o     o o 3 5 H a.A._.`.m.v.7.n.n.<.' 1 j I I I R R U T ) ` ) ` ` ' } } ' ",
"r t t t t t y t i i V @ @   @       .   O Z _.A.= .     o o   & & 4 s 4 H D.^.n.R.v.| | 3.v w 1 A I I T U R U R ` ` ` ` ~ ' } ' ",
"t r r x t 8 p x i M z.# @             # . 3.%Xk.#       o o & o & 2 s H M u._.n.c.c.N.^ T x x b y V R R T I T U ` ` W ` ~ ' ' ' ",
"t r r y t r x t i X.S.<   +       @ . . p Z._.b.=     o o o & & 2 4 n H X.z.k.x.f.s.f.d.3.V w j b V A T R T L R ` ` ` R ~ ' } ' ",
"t t t r t p t t T S.Z._               = b.%XZ.^.=       o o o & 2 4 H o.%Xl..Xa.S  .l.1.b.{ e 7 U A A I R I T ) ` ~ R ` ~ ` ' ' ",
"r t t t t x 1 V S.Z.Z.S.u   .     @ + T %X%X%XA.p O o   o o o & 4 4 O.D.<XS._.B.c.n d.f.C.| V N A I I A I I I T W W W R ) W ( ' ",
"r r r t r y t } n.Z.Z._.| h $ . + 9 M %X_.-X&X_.{ -   o   o & & 2 n O.<XoXd.(.b. XS  .X.S.k./ D A I I I T I L T R W W ` ` ` ' ' ",
"r r r q t e F S._.^._._.{ b.Z.A.(.b.b.&X%X-X%X%XB.h O . o   O & 2 n X.<X}.c.XXC.A.d. .d.l.C.X.V T F A I T T I U R ~ ` ` ( ( ' } ",
"r r r e t t ..n.^./._.B.:.N.|.|.%X1._.&X>X>X%X&X.XM.h # O o & - 5  .oX<XXXc.B.A.*XM. .l.C.b.k.F A I I A L R R T W ~ ' ' ( ( ~ } ",
"r 8 r 8 q V n.n.`.).`.v.>.W.).|.B.W.`.*X>X=X&XOX`.=X&X2.M q m O.A. X}.(.XXc.W.R..X Xa.d.B.C.x.) C T A I I T R R R ' W R ~ ' ' ~ ",
"r r 8 8 t | (.%X`._.`.x.3.(.).`.R.).OX;XfX-X#XOX#X@X@X*X=X:X,X,X.XoX}.(.|.g.W.W.OX|.s.a.N.b.b.} C F I I I T ` W W ) I I ` ` ` ` ",
"9 9 8 q M b.B.^.|.`.Q.f.v.).`.).E.).OX=XfX-X+X+X#XhXhX:X:X>X,X*X@X.X`.).|.g.E.|.@X|.b.3.c.n.N.3.I V I I I U R R R U J L R U E R ",
"9 7 8 9 ) ^.`.).).).Q.3.R.|.).).).$X;X=X>X=XOX#X#XhX#X#X#X:X>X:XOX|.Q.|.$Xg.N.|..X.X^.s.x.b.v.s.) V A A I E R T R I J T W W R U ",
"q 7 8 j c.A.`.(.).|.).3.).).|.).).$X;X>X>X-X@X@X#XhXhX#X#X:X:X*XoXQ.Q.$X|.g.N.|.XX.X|.k.f.c.c.k.' A A A I U T R ^ R U E ' &.' U ",
"5 7 7 T B.^.`._.).`.W.g.|.).`.^.).OX*X>X>X*X&X=X#X#X#X#X#X#X:X:X$X|.|.@X|.N.g.|.XXXX|.l.c.c.v.c.} I A V C C I Y U W W W E W ^ L ",
"{ ) Y l.(.^.`.`.).).R.v.`.`.`.^.).OX*X>X>X&X%X-X:X#X+X+X#XhX:X*X|.|.|.$XoXg.N.oXXXXX XM.N.c.C.l.<.` A A C B B C J U Q L B C L B ",
"1...| Z._.^.|.).`.(.v.n.OX`.(.W.OXOX;X>X>X-X*X-X=X#X#X#X:X#X*X*X|.W.|.@XoXV.g.|..XXX|.b.W.l.b.D.u.} V J I J C B C C m J m C L B ",
"2.] c.W.^.`.).`.^.^.f.B.(._.}.^.`.OX#XfXfX+X#X=X;X-X&X-X*X*X*X:X}.}.|..X XW.N.}.|..X|.W.v.V.g.l.M.( Y Z J P L P J J C l N N B C ",
"| 1.B.^.^.`.^./.`.R.3.W.}._.A.B.`.*X;X:X=X#XhX*X{.`.`.-X;XOX@X@X|.N.|.|.}.N.d.oX.XOXOXW.c.R.M.M.M.a.^ u d m I L K J v g l C Z N ",
"1.N.(.`.^.|.).`.`.v.s._.|.(.V.B._.&X,X>XhX:X$X!.^.J.x.7.R.+XiX+XQ.).+X^.oXV.N.W..XOXOX(.M.W.V.c.M.g.( a w f B U U R J g l C I P ",
"b.B.B._._.^._.).).x.x._.(.b.V.M.XX.X=XgX|.d.f.$X`.OXF.' %.*.,.7.,.J.R.OX|.(.g.}.XXXXXX}.c.W.}.M.M.d. .S j g j J R W L l g m P T ",
"V.W.V.(..XB.R.R.).x.s.v.W.|.}.B.(.%X}.d. .d.|.:XiX;X6.6.{.rX9XsX9XG.g.F.Q.R.c.|..XXXXX(.c.(.}.B.M.c.a.^ u j l N T W T C l m J J ",
"b.W.(.W.W.V.@X&Xn.^.OXOX|.Q.|.|.M.d.X.d.M. XgXvXiXlX~.w.5.r.i.aXcXuXuX6.h.W.B.W.oX.XXX}.M.(.}.W.M.M.c.| k h m m C U W U C l v B ",
"M.V.^.B.g.W.>XfXjX>X:X@X:X@X|.g.d.M.V..X,XvXVXbXNXzXsXsXxXsX5X0.j.0XdXsX6.E.H.(..XoXXXA.M.(.(.).S.l.b.a.F m k j h C U U J m j g ",
"(.}.}.(.c.`.=XgXjXfXfX|.|.W.|.$X*XfX>XvXvXVXBXNXZXzXlXxXxXdXcXsX5XU.G.sXuX=.K.R..X.XoX(.N.(.^.).A.k.l.a.o.V h h j C S C K I N g ",
"XX|.}.N.}.@X>XgXjXhXhXhX#XgXkXsXzXbXbXbXCXVXAXbXnXiX9X~.G.0XuXuXpXcXwXw.aXG.,./.).OX`.R.v.n././.^.b.k.k.1.Z a j j M j k B U R l ",
"|.|.|..X$XhXgXvXjXgXvXjXvXbXbXbXnXnXMXMXBXVXBXNXuXg.6.%.$.>.*.+.5.0XcXpXw.0X$.L./.).|.g.k.u.*.H.`.n.k.k.c.Y f a j M k k g B R U ",
".X@X*X:X,XvXvXvXjXgXvXMXnXBXBXMXnXZXNXBXBXNXzXZX,.Q =.g.~.+X+XQ.h.,.-.8XaX9.#.8.~.h.6.H.J.].].u.4.K.x.u.3.&.u k f j h m z m W ' ",
"#X:X,X>XgX>XvX>XkXhXkXMXBXnXZXZXnXBXnXnXNXNXnXNXG.*.I.].+X+XOXE.v.~.G.+.eX1X@.c $.[.L.6.6.5.;.%.*.E J.7.n.m.N p k j k N l B U W ",
"*X=X>XfXgX>XvXvXkXhXzXMXZXZXBXBXBXBXNXbXNXzXnX;X~.5.I.].+X|.XX.X!.Q.I.0.y.j.8.c q.,.P.uXuXuXrXrX[.u.J &.m.7.} j Z N f k j N I U ",
"*X:XfXgXvXvXvX>XkXgXzXMXBXnXnXnXBXVXNXVXkXlXnX].9XI.h.].+X`.XXA.N.R.$XI.P.2X@.c 8.eXdXqXyXdXtXtXsXuXK.%.7.m.4.j M C y k g N J E ",
"=XhXgXjXgXvXgXvXhXgXkXbXnXzXnXnXBXmXVXvXlXzXzXT.7X~.=.[.+XOX%XA.V.W.Q.I.9.6X8.p.2X2X-.@.-.q.q.r.uXuXsXY.Q 4.f.P j Z u k j j l L ",
">XfXgXjXgXgXgXgXkXhXkXkXzXzXzXbXmXVXVXkX>XlXiX7X7X5X%.I.{.{.%XZ.C.oXQ.].h.+.@.8.-.c -.t.9.q.i.i.r.w.u.rXK.U K :.k Z w f g x w B ",
"fXgXjXjXjXgXjXjXjXjXkXjXkXkXkXzXmXmXvX:XgXkX9X7X6X4Xj.0.9X{.^.Z.R.)./.Q./.K.H.h.,.j.y.j.1XcXwXdXrX8Xu.%.=.T.L L v V b x y y x d ",
"fXgXgXgXfXfXfXgXgXjXkXkXkXkXkXkXmXvXvX:XlXiX{.0X8X6X4Xj.5.{.'.n.!.Q.).(.^.W.B.!.E.Q.h.I.U.0.y.1XtXrX7XrXu.! %.v L b v x g f x w ",
">XgX>X>X>X>X>XfXgXgXlXkXjXgXkXvXmXgXgXgXlXR.F.I.I.qX6X4XU.5.].H.H.(.|.W.(.V.W.V.W.).H.4.=.! $.,.;.u.7XrXrXK.K z v x x y f f f w ",
">X>XgX>XhX>X>X>XhXfXgXgXfX>XjXbXmXvX,XhX>X` &.*.,.[.qXuX5XP.5.j.!.|.W.W.}.N.N.V.W.|.Q.).).>.h.~.i.3X9.T.rXdXK.L , v w x g g d e ",
">X>X>X>X>X>X>X>X:X=X:X>X:XhXkXbXvX#X@X,XfX] /./.~.,.w.rXeX3Xy.9.E.Q.Q.Q.Q.!.!.N.V._.(.}.`.=.g.h.T.1Xi.U.8XaXuXu.g J d d f x k j ",
"-X-X:X,X>X>X=X,X=X=X:X-X=XgXkXbXvXvX@XhX|.:.`.)./.{.u.=.T.eX2X8.h.E.K.L.L.L.Q.Q.W./.`.R./.4.L.I.7XtX8Xq.8XrXuXsX%.v z d w f m C ",
"=X=X,X=X:X:X=X=X=X:X>X-X>XjXvXkXvX:X@XvXf.g.|.|.`.J.;X].#.P.2Xy.;.w.j.G.h.h.G.L.K.L.Y./.~.=.h.5XrXtXtXi.i.0X9X9XU.v L l N N N N ",
"-X=X=X=X=X=X=X=X*X>X>X>XgXvXkXjXhX:X$XhX .|.W.}._./.Y.].5X8.y.t.@.8.q.e.e.0.w.r.w.K.G.r.-.i.1X8XtXtXtXi.r.i.tXrX[.Q U l l N j j ",
"=X:X,X=X,X=X=X=X*X>X>XhXjXkXkXgX>X%X-X-X` ).$XQ.(.`./.).{.I.0.y.9.p.3X3X7X7XT.3XqXU.j.2XP.6X6X3X8XwX6XU.e.1X5X0X[.7.z K b f x j ",
"=X=X*X=X=X=X=X=X>X:X>XfXjXkXkX>X-X%X-X^.f.Q.$X|._._.`.`.).E.6.,.@.-.8.9.i.7X7XrXqXyXeXeXeX6XeXqX3X5X5XU.e.1XqXrXT.u.z B g x f h ",
"*X*X=X*X*X=X=X>XfX>X:XfXkXkXjX-X&X%X=X4.E.Q.$X).).`.`.(.).{.H.6.u.U.u.=.%.%.;.K.4XyXeX4XyXeX6X6X5X5X8X1Xt.1XwXtX7XG.~ z b j p j ",
"*X*X*X&X*X=X=X=X>X:X>XjXkXjXgX-X%X&X-X&.Q.).Q.Q.|.W.(.(.(.`.W.H.I.I.L.L.Y.F.*.~ $.h.4Xj.4XqXwX6XrXrXwXeXt.1XwXeXrXu.7.d C k f h ",
"*X*X*X*X*X*X,X,X-X,XjXkXkX>X>X,XXX@X=X] E.).R.Q.).).|.|.).W.V.v.H.E.!.!.Y.J.J.J.H.*.%.,.U.rX7XrXrXrXtXtX2X3XwXwX7XT.7.v J w b y ",
"*X*X*X*X*X*X-X,X=X,XjXkXjX>X-X>XOXXXXX:.W.R.).Q.)./.).|.).W.v.R.W.R.R.W.n.J.!.E./.F.E.=.%.u.T.7XrXrXtXtX3X3XwXwX5XT.u.Q v j k f ",
"*X*X*X%X*X*X=X=X=XfXjXjX>X,X=X*X$X:Xg.c.(.W.`.W.)./.{.W.Q.).R.R.B.B.R.R.!.!.!.R.n.J.'.u.u.*.u.i.7XrXrXdX6X3XwXwX5XG.u.*.d I e f ",
"*X*X*X*X=X=X=X=X,XfXjXjX>X=X*X*X|.gX .|.(.(.(.).E.).).E.$X/.v.v.^.B.V.R.Q.E.E.v.Y.S.Y.Y.Y.K Q u.i.[.7XtXeX3XwXtXwXU.u.4.x R h w "
};
