/* XPM */
static char *_78133d08d534425ea1fa81aaf287032vyLZkh7eGY05eqUa[] = {
/* columns rows colors chars-per-pixel */
"64 64 256 2 ",
"   c #030302",
".  c #090A08",
"X  c #170A06",
"o  c #0A120E",
"O  c #1A150B",
"+  c #060E15",
"@  c #050F18",
"#  c #0D0E13",
"$  c #061214",
"%  c #0A1215",
"&  c #04121B",
"*  c #0C131B",
"=  c #0D1A1C",
"-  c #05181A",
";  c #131314",
":  c #12151C",
">  c #121A1C",
",  c #1A1818",
"<  c #1B0D13",
"1  c #2A0A09",
"2  c #251917",
"3  c #28120E",
"4  c #17231F",
"5  c #2C2214",
"6  c #061623",
"7  c #0D1522",
"8  c #041923",
"9  c #0C1B25",
"0  c #0D1529",
"q  c #0D1C2A",
"w  c #121622",
"e  c #131A24",
"r  c #191C24",
"t  c #12162A",
"y  c #131C2A",
"u  c #1A1D2A",
"i  c #1A1624",
"p  c #141D31",
"a  c #080F21",
"s  c #0B212B",
"d  c #0A2128",
"f  c #132123",
"g  c #15232D",
"h  c #1A252D",
"j  c #1B2A2D",
"k  c #192527",
"l  c #1D302E",
"z  c #162431",
"x  c #1A2532",
"c  c #152A33",
"v  c #1C2B32",
"b  c #1C293A",
"n  c #132C34",
"m  c #222D2E",
"M  c #282725",
"N  c #21302F",
"B  c #232C34",
"V  c #252D3A",
"C  c #242A36",
"Z  c #233233",
"A  c #283435",
"S  c #29363A",
"D  c #37393B",
"F  c #382A24",
"G  c #261823",
"H  c #442619",
"J  c #4A2C25",
"K  c #4D3526",
"L  c #53362A",
"P  c #593C33",
"I  c #52322E",
"U  c #693129",
"Y  c #6C251D",
"T  c #34413D",
"R  c #59453A",
"E  c #514534",
"W  c #644839",
"Q  c #774B36",
"!  c #77593C",
"~  c #65422C",
"^  c #242E42",
"/  c #273345",
"(  c #384B4C",
")  c #366960",
"_  c #444A48",
"`  c #485657",
"'  c #585550",
"]  c #654C43",
"[  c #685648",
"{  c #755649",
"}  c #775854",
"|  c #6C574C",
" . c #7A6457",
".. c #746554",
"X. c #485D66",
"o. c #595F61",
"O. c #486269",
"+. c #566A68",
"@. c #756B63",
"#. c #6E726E",
"$. c #4C605F",
"%. c #89583E",
"&. c #865A48",
"*. c #8D574F",
"=. c #A55A4B",
"-. c #8A6649",
";. c #896758",
":. c #976858",
">. c #916C52",
",. c #A76A56",
"<. c #B96B59",
"1. c #AC755A",
"2. c #BA755C",
"3. c #B5765C",
"4. c #AB674D",
"5. c #897669",
"6. c #987767",
"7. c #8A7973",
"8. c #8E6B69",
"9. c #A97B67",
"0. c #B87B65",
"q. c #AF766F",
"w. c #C4745B",
"e. c #C76E5A",
"r. c #C67C66",
"t. c #D17E6E",
"y. c #7C817A",
"u. c #998978",
"i. c #918775",
"p. c #B7846A",
"a. c #A98877",
"s. c #B68976",
"d. c #A5957B",
"f. c #BB967A",
"g. c #AC8567",
"h. c #B7A17D",
"j. c #C48469",
"k. c #C98A75",
"l. c #D58C77",
"z. c #C69577",
"x. c #D59677",
"c. c #D6886C",
"v. c #E8997A",
"b. c #CBA77E",
"n. c #EBA47F",
"m. c #289C9D",
"M. c #3D948E",
"N. c #24A29E",
"B. c #2B9DA5",
"V. c #2CA4A9",
"C. c #33A2A4",
"Z. c #33A6AC",
"A. c #38A7A8",
"S. c #28ACB5",
"D. c #34ABB4",
"F. c #39ACB4",
"G. c #36ADBA",
"H. c #2BB6B9",
"J. c #35B3BA",
"K. c #3BB3BC",
"L. c #39B5B8",
"P. c #33B2AD",
"I. c #1F9D99",
"U. c #7A8887",
"Y. c #6C969A",
"T. c #758E8D",
"R. c #719EA2",
"E. c #46B8BA",
"W. c #55B8B4",
"Q. c #4DA8A6",
"!. c #77A4A8",
"~. c #74BBB9",
"^. c #6CB9B7",
"/. c #519694",
"(. c #3BC2BE",
"). c #6CC2BE",
"_. c #79C6BD",
"`. c #4DC4BD",
"'. c #3BB5C2",
"]. c #39B9C6",
"[. c #2ABAC3",
"{. c #43BCC4",
"}. c #46BBC7",
"|. c #58BAC2",
" X c #71BCC2",
".X c #3AC5CA",
"XX c #3DC5D4",
"oX c #2FCACC",
"OX c #45C2C9",
"+X c #57C8C5",
"@X c #46C8D6",
"#X c #50D0D8",
"$X c #6AC5C2",
"%X c #70CECA",
"&X c #52DBE7",
"*X c #98999B",
"=X c #8B9090",
"-X c #B99786",
";X c #AD928C",
":X c #9CA197",
">X c #B8A686",
",X c #A5A69C",
"<X c #B7AA9A",
"1X c #98A8A7",
"2X c #8DB5B3",
"3X c #A6A9A5",
"4X c #A8B8B7",
"5X c #B8AEA5",
"6X c #979FA2",
"7X c #C89987",
"8X c #DA9A89",
"9X c #D29389",
"0X c #E99E8A",
"qX c #C7A787",
"wX c #D7B58C",
"eX c #C7B496",
"rX c #D7B898",
"tX c #D0AD8E",
"yX c #EDAE8F",
"uX c #C9B9A6",
"iX c #CBB4AC",
"pX c #EDBCA9",
"aX c #8BC5BF",
"sX c #AEC1BF",
"dX c #E3C19B",
"fX c #D7C4A9",
"gX c #D4C8BC",
"hX c #CCC4B9",
"jX c #EACFB2",
"kX c #D0C09F",
"lX c #B5C5C4",
"zX c #BED1CF",
"xX c #8DD3C8",
"cX c #D4CDC2",
"vX c #DFCEC4",
"bX c #CFD1C5",
"nX c #D3D1C6",
"mX c #D9D1C6",
"MX c #DDD5CA",
"NX c #D8D9CB",
"BX c #DDDED5",
"VX c #C1D4D2",
"CX c #E1D9CE",
"ZX c #E7D8C7",
"AX c #E4DDD2",
"SX c #E6DBD9",
"DX c #E3CFC9",
"FX c #E9E2D6",
"GX c #EBE4DA",
"HX c #E7E6D9",
"JX c #F2E8DD",
"KX c #FBE8CD",
"LX c #F7EBE4",
"PX c #FFF6EC",
"IX c #F1EEE9",
"UX c #DFE2D9",
/* pixels */
"> $ > 4 o $ = = % o > > . > M + : a : a < @ * # # # + # $ % $ % o o o o o o o o o $ $ $ % % $ - * & * $ * & $ * @ $ * & $ & @ + ",
"= = 4 4 = 4 4 % 4 = - f f * # > * * : : : : # : : # % $ % $ $ % o o o o o $ o o o o % % $ $ % - $ * * & * $ - * & * * - * * % & ",
"= 4 - $ o - - = = f . . k ,   * : : * : # # @ @ * * $ % $ $ $ $ $ $ o o o $ o $ o $ % $ % % $ % & $ & % * & * $ * - * * - $ & $ ",
"$ f k j A A ( +.#.#.` S _ +./ > * * ; # @ : : # * $ % * & & $ @ $ $ $ $ $ o $ $ $ $ o % $ $ % - % * * - $ & * & & $ * $ * % & + ",
"f $.y.T.T.T.1XsX4XlX1X=XU.1XU._ ; * % * * # * $ + $ & $ * & @ @ & $ $ @ $ $ $ $ $ $ $ % $ $ % % * * * * @ $ * * @ @ * $ @ @ + + ",
"l T.VXVXsXzXlXsXlX4X4X4X=X=XU.o.* % # ; * * $ $ & % * * * & @ @ @ @ @ @ - $ @ @ + $ + $ $ o % $ % $ $ & * * $ * $ * $ * * @ * @ ",
"$ +.2XlX4XsX4X1X4X4X4X1XU.o.( ( o ; % % # % $ * * - 7 - 7 @ @ @ @ @ @ @ @ @ @ $ @ + $ $ o % % # & * $ * * * * @ * 7 - * * $ $ * ",
"- A #.=XT.T.U.y.+.#.+.+.+.( = o % ; o % % % $ $ y e e > * @ + . + @ @ @ @ @ @ @ @ & $ . % + % % % $ * * @ $ * @ * : : * 7 * * * ",
"l l A T ( T T A S A A Z A Z - o = > ; > > = 9 = = j > % h ;   % . # ; * r % > $ & * * * * * ; ; : * * * 7 * w * 7 : * > 7 * e * ",
"k l l l n Z l Z A Z A N A Z o - ; > > = = > > = h . > k . O M   , . . # # 4 e r = - * = : ; ; % : 7 * : : w : : * * e * * : w * ",
"l l l l l l Z Z A Z Z j A A % - > > > > > d > = $ > 4 2 O .   5 . 5 2 O o 4   = * = > * : * ; : : * * * e : : w w * * * * = * * ",
"l l l l l l Z A Z N Z m A N = % > = > = 4 = = > k ; O 2 O L i.>XuXd.W 5   O 4 o : * = : ; : : : > * * * : 9 a : * e w : w * : e ",
"k l l l m m Z N A m Z j A A ; % > e e e e 9 > = 4 , . O ..kXjXjXfXdXjXkXE o 5 o % % * % * : * : * * : # * w * : : w * * : : * * ",
"k l l j Z m m m A m m j m m ; % > 9 9 e d 9 4 > . O O ! fXjXqXwXwXwXeXkXkXE o o ; % % * * * # * * * @ * : * * * # # : * * * # * ",
"l M j m m m m m m m m M A m % % e e y 9 e = > > M   [ fXkXwXdXwXqXwXwXh.NXd.o O o ; % * * : * # : : * i : : * * a : * * * : w * ",
"k j j 4 h m M m A m B M m N % % > e e y q f > = . F >XKXkXqXwXb.wXg.eXh.eXjXT . ; ; = * ; * : : i * w * w i i w w i w : i w w i ",
"j j k j j k j l Z j B k j Z = % > , u y 9 q e ; . 5.jXdXwXrXeXqXh.>Xh.qXeXeX<X. < w u w : i w , w w w w w e w e w e e e w e w e ",
"k k j k j n j j v j Z j j Z 9 $ , r e q q q f ; 5 h.jXdXrXwXqXh.>XeX>XeXeXfXhXG ; w w 7 7 w > : i 7 w w w e e t e w w w w e e 7 ",
"j j j j j j l j Z j l c j Z = $ ; r f d s s = ; E KXwXdXdXqXh.h.>XkXfXrXuXjXDXP : : e 7 * w , : e u y e y e e u w w w w w w w w ",
"j k k j j j v l v j l k j Z - $ > > f d s s = o 5.PXwXwXwXb.qXwXqXdXrXrXiXfXgX' # w e e e w i , w w w w w w w w 7 7 7 w 7 w 7 7 ",
"j c v j v v v v Z h v h c v = $ = = d d s s d o u.KXrXyXx.b.b.wXwXtXwXtXeXeXiX@.# * y 9 9 w , : w 7 7 7 : 7 w 7 : 7 7 7 7 7 w * ",
"j h h j j v v l v h Z c v Z = - = d d s s s = o a.dXdXyXb.yXb.x.b.z.z.7Xz.>X<X@.. % 9 6 7 * : : w w w 7 7 w 7 7 7 7 w 7 w * 7 w ",
"j j j v v v B l Z v Z j v Z = $ d d d s s s > X g.rXyXyXn.n.x.j.p.0.p.g.s.d.;X' o & 9 9 e e i : w w w w w w w w w w w w w w w w ",
"j v j v j v v Z v c Z v v Z 9 & = = d d n f ; X p.jXyXn.dXn.c.j.2.0.0.1.g.s.u.R o = f 9 e u r i e r u y e u u w w u e w u y w u ",
"v v v v v v v v Z b Z v v v s $ 4 = f s y y ; 1 s.pXyXv.n.c.e.w.0.2.2.,.p.9.i.] o % f h q 9 u i e u e u u u w w w u u w w e t e ",
"c v v v v v v v v v v c v v y & f d q s y r < 1 s.yXv.v.n.c.e.c.w.<.2.1.3.g.d.| < , e y y e u e u e e e y u w * 7 7 w w 7 w w w ",
"x v h v v x v v v v v v v v y & e e y y y u 2 3 9XyXv.v.0Xt.<.r.2.<.<.3.1.9.s...X i w t y g e e u e y e u e w 7 7 w 7 w 7 w 7 7 ",
"j h c z v x c v x v z v v v 9 & 9 e y q u i 2 1 7XyXv.v.0Xc.t.l.3.,.<.p.3.0.s. .X , r a y z w u e u u u u y u r e e w e e e u e ",
"h g h h c h c h x v c h v c f & e e 9 q y w < 3 7XpXyXv.c.j.0.,.3.3.3.j.0.p.s.;.1 < u t y g 6 z e u u g C u C C u C u x C C C C ",
"g g c h g h h c h h h c v h 9 & > d s q 9 = ; 3 g.9X8Xx.x.l.z.q.,.3.4.2.0.r.q.*.I < G t 7 y 6 h e u u v C C C C V C C C V V C C ",
"g g g k c h g h g c h g x v 9 & 9 9 d s q 9 > 2 eXrX0X8Xp.,.&.Q %.1.4.3.<.0.,.6.} < i u 7 p 9 s e u C C C C C V V C C C V D V V ",
"g g g g g g h g g h g h z j 9 & - d s s q 9 , 2 a.-Xk.z.p.*.&.Q %.1.4.2.r.r.2.q.q.1 < u * z 9 9 y p C V V V V V V C b C V S V C ",
"g g s g g g z v h c c s c c q & 8 q 0 0 g f - M 7.:.q.8Xq.7Xa.9.s.j.j.j.e.e.c.x.:.1 G a i t & s * x ^ V V V / ^ V V b b p p p b ",
"s y s g s s g z g c z g g z q 6 6 z t 7 g f - M 5.] *.9X2.:.Q ~ %.1.j.c.e.e.t.c.:.1 G < a u & 9 8 x C b c h b x b z b z p b p p ",
"9 9 8 y h s g x z c h z z c q & 8 q t 7 y y % , @.8.q.9X,.=.;.>.-.g.j.j.e.e.t.2.:.X 2 i w 7 7 6 q g g y y y y y 0 y z x x z p p ",
"9 & 9 y g g y g z h z h z h 9 @ 6 q 0 t y e % o 5.-X9X9X=.=.p.7Xp.j.2.w.e.<.<.,.;.X < u 7 6 0 6 y y f y y y q 9 9 y p x x z z t ",
"6 6 7 y g g y g g z g g x x 7 6 6 6 0 t t u * . 7.-Xj.9X<.=.:.9.g.3.3.r.t.<.<.:.} X i y 0 0 p i 9 e f f s 9 6 6 9 0 g x b g z y ",
"9 7 9 y x g x g h z g g g x e @ 0 6 t t a y =   5.iX9Xt.e.<.,.4.4.3.w.l.k.<.q.q.R < w t p t p p f f s f 9 & @ 6 9 8 q p z b b b ",
"e 7 & e g x g g y g g u z z 0 & 7 6 t p a y t   ' pX0Xe.=.e.0.0.j.c.c.x.r.3.a.a.F w p 0 p p p p q f f q 6 @ & 9 9 9 9 q z b / / ",
"y 6 6 9 y g y y x x g z z z 9 & 6 6 p t a y y . R iX0Xt.<.4.0.0.p.x.l.l.k.q.p.7.2 9 p 0 b p t p p q p q 7 6 0 z p q 9 0 q c / / ",
"9 6 6 6 e y y y g y y q h z 9 @ 7 6 t t y 9 = % F iX9Xt.t.<.r.p.j.k.x.j.2.p.:. .; k 9 8 p p t t 0 q p q 0 6 0 0 y q 0 0 p b ^ / ",
"9 7 & 6 6 9 y y f g y g g z 9 & & - 7 t 0 0 = % < ;X0Xt.<.=.,.9Xj.k.c.j.3.9.;. .; r q q p p p u t y p y 0 q t z 0 0 6 0 0 b b ^ ",
"9 6 & & & 8 9 9 q 9 9 q y g 8 $ & & 6 0 9 8 8 = # a.9Xq.=.=.=.k.z.j.p.4.,.9.8.5.< + 8 q a a t i 0 y t w 0 6 7 t p p 0 y p b ^ ^ ",
"q 6 & & & & 8 & 8 8 9 9 9 s 9 @ & & * 6 6 8 - - + } q.Y Y Y { q.z.p.3.>.,.9.6.8.2 * 9 z a a i : : e w w w a 7 t t w 0 t u p p b ",
"8 8 & & & 6 6 6 8 q q q s s 9 - - & 6 6 0 8 8 6 . ] 9X*.r.:.*.&.g.1.4.-.4.g.q.7.2 . @ a @ a i < * ; > ; > > r k r u u i u G C C ",
"q 0 8 s s n c c c n n n n S n v c h x b n n n s ^ _ 8.U *.&.:.>.g.-.-.%.:.g.:.8.M M b ^ C D D A D T T _ _ _ _ ' ' ' o.` o.o.o.o.",
"( ( ( ( ) X.X.X.X.O.O.O.O.O.O.` O.` O.O.O.O.O.O.( } ;X*.U Y ;.u.>.! ! Q &.,.;.} 8.=X*X=X*X6X*X*X,X,X,X:X,X,X,X3X3X3X3X3X3X3X3X3X",
"Y.Y.Y.Y.Y.Y.Y.Y.Y.R.!.R.!.!.!.R.!.!.!.!.!.!.!.^.1X*X;X;Xq.8.g.;. .! ! Q %.*.{ P 5XSXIXSXSXSXSXUXNXNXNXmXnXnXbXbXbXbXnXbXnXnXnXcX",
"$X~. X~.~.^.^.^.^.$X).$X$X$X).). X%X%X$X).$X).)._.aX,X8.:.<.6. .! ~ L U { { P I  .PXLXJXJXUXBXBXmXNXmXNXMXmXcXgXnXnXmXnXmXbXcXcX",
"W.W.W.W.W.W.W.W.W.W.W.W.E.W.`.+X|.|.|.}.`.+X+X).%X_.=X8.{ -.-.! K H H W { P L P E hXPXFXHXHXBXNXAXCXCXCXCXCXMXmXcXcXcXcXcXgXcXcX",
"C.Q.C.C.C.A.A.C.A.A.C.C.A.A.A.F.A.A.A.P.A.P.P.E.A.Q.!.U.[ W W ~ 5 K P P L J J L J 5.PXJXAXHXHXNXFXAXCXCXCXMXmXmXmXmXcXgXcXhXcXcX",
"C.C.C.C.C.C.C.B.C.Z.D.F.F.P.Z.C.C.C.N.N.V.I.I.A.C.M./.T.y.R E 5 P ! { L J L I I P ] ZXPXFXHXHXSXFXCXCXMXmXmXmXcXcXcXgXcXcXcXcXcX",
"C.F.F.L.E.K.K.J.'.}.}.}.OX{.'.K.K.L.L.L.J.G.S.].E.E.W./.) ( _ W 6.{ R L L J L ] ] P ;XIXLXGXGXLXFXFXAXCXCXMXmXmXcXcXcXcXcXcXcXhX",
"Z.F.{.OXOX'.}.OXOX}.].].].'.'.'.K.(.OX+XOX].].XX@X+X+XW.I.y.y.i.5.! J H L P U W ] P | vXLXJXSXLXFXFXAXAXCXMXMXmXcXcXmXmXmXcXmXcX",
"V.G.].'.L.J.].}.'.'.'.D.G.G.G.G.H.L.{.'.J.].].XX&X@X].(.`.aX3X7.| W L L } 8.;.{ { } ] ;XJXLXSXGXAXAXCXCXCXMXmXcXMXMXMXMXMXMXMXMX",
"V.H.K.J.Z.V.J.{.K.K.G.'.'.'.G.G.L.OX}.K.D.H.].].}.}.oXXX`._.:Xi.] K E ;.-X-Xa.;X*.6.} | DXPXSXSXAXAXCXAXCXCXmXmXmXmXcXcXcXcXcXcX",
"V.L.E.L.V.Z.F.D.B.B.D.G.F.D.D.F.J.S.V.B.D.'.].XX].XX[.H.%X%X3X@.K W 6.d.-X9.:.6.q.;.;.} ,XPXPXLXGXJXJXFXAXGXFXCXMXcXcXcXcXgXcXcX",
"V.P.Z.m.m.B.C.Z.F.D.B.B.B.Z.F.'.J.G.Z.Z.D.'.].].@XoXoX(.+XaX6X] [ ;.;X>X-Xs.9.q.:.:.8.} 7.iX5XiXiXhXcXMXCXCXmXmXCXCXMXmXmXcXcXhX",
"m.m.m.m.V.m.m.B.K.A.A.Z.F.Z.Z.G.G.J.E.G.}.}.#X@X@XXX#X`.W.aXi.E i.a.qX7Xf.s.9.9.>.;.;. .@.7.7.7.#.i.,XgXAXCXCXAXmXMXMXMXMXMXmXcX",
"m.m.m.B.V.m.m.Z.F.F.F.E.E.F.F.Z.D.D.D.G.}.@X&X@XXX#X#X|.^.4X..E g.h.rX>Xs.s.9.9.9.6.&. .;...#.o.@.i.<XDXGXAXCXAXmXmXMXMXCXCXMXCX",
"A.C.Z.Z.B.B.F.{.F.F.F.G.F.K.G.J.J.H.D.D.'.'.[.[.XX&X+X|.2X:X[ ..-XqXrXqXz.f.g.p.g.g.:.;.] ' i.,X5XhXBXAXAXAXCXcXCXCXMXMXMXMXMXMX",
"B.Z.E.E.{.F.Z.F.D.L.].}.'.}.'.].].H.H.K.'.'.S.S.oXXX|.~.1X=Xy.g.f.qXwX8Xz.z.g.3.g.g.:.;.W ..hXHXAXGXGXMXmXCXCXmXCXMXMXMXmXMXMXCX",
"B.D.{.}.}.'.D.V.S.'.@X].].}.OX.X.XH.H.XX}.]..XoXoX@X).!.:Xi.d.d.h.f.qXb.b.p.1.1.1.>.-.! ..,XJXPXAXAXCXMXMXCXAXSXmXMXMXMXCXCXAXAX",
"D.G.D.D.D.J.'.S.'.].].S.S.[.XX@X.XS.S.XX}.].[.oX&X#X%XaXi.y.d.>.>Xf.b.b.z.j.1.1.4.-.>... .<XJXHXGXAXAXFXAXCXMXCXCXCXCXCXCXCXMXmX"
};
