/* XPM */
static char *a2913c48ed9445fe8a8766b988256a75K87rd0Y1UEUaCJEO[] = {
/* columns rows colors chars-per-pixel */
"64 64 256 2 ",
"   c #010104",
".  c #02020B",
"X  c #07070B",
"o  c #020313",
"O  c #020A13",
"+  c #090818",
"@  c #160917",
"#  c #1A141D",
"$  c #0F0D12",
"%  c #270818",
"&  c #360A18",
"*  c #251518",
"=  c #340D0D",
"-  c #080628",
";  c #170928",
":  c #020233",
">  c #0B0434",
",  c #080838",
"<  c #160A37",
"1  c #141428",
"2  c #261828",
"3  c #281736",
"4  c #330F2E",
"5  c #352830",
"6  c #5A160A",
"7  c #441418",
"8  c #591715",
"9  c #4E0E0F",
"0  c #67150A",
"q  c #751A0A",
"w  c #691513",
"e  c #771916",
"r  c #650B15",
"t  c #4C2813",
"y  c #782411",
"u  c #461438",
"i  c #4F0E2C",
"p  c #6D142A",
"a  c #4D2A36",
"s  c #6E2A33",
"d  c #070745",
"f  c #180946",
"g  c #0A1848",
"h  c #161549",
"j  c #180956",
"k  c #0E1353",
"l  c #290B4C",
"z  c #370B48",
"x  c #291449",
"c  c #2F0F51",
"v  c #102249",
"b  c #2C2846",
"n  c #160868",
"m  c #280A73",
"M  c #4F0E4D",
"N  c #6E0D53",
"B  c #4C354B",
"V  c #6C3046",
"C  c #7F0961",
"Z  c #745159",
"A  c #6B4F66",
"S  c #5C4C56",
"D  c #6E4C26",
"F  c #8B1B0F",
"G  c #892409",
"H  c #99260C",
"J  c #98261A",
"K  c #912F12",
"L  c #A5270A",
"P  c #A72818",
"I  c #B4310F",
"U  c #90162D",
"Y  c #AB162F",
"T  c #8E2E30",
"R  c #B12E30",
"E  c #B01E1A",
"W  c #E61B1C",
"Q  c #F61A1E",
"!  c #C83518",
"~  c #CE350F",
"^  c #EB2C0D",
"/  c #EC3D0D",
"(  c #EB340B",
")  c #F33C04",
"_  c #F5380A",
"`  c #E82819",
"'  c #F62A16",
"]  c #EB3D14",
"[  c #EA341B",
"{  c #E53B1B",
"}  c #E73716",
"|  c #F83816",
" . c #F52D0A",
".. c #DD1A2A",
"X. c #D90E3C",
"o. c #D70D3C",
"O. c #CB1736",
"+. c #DD1334",
"@. c #D81638",
"#. c #C4192C",
"$. c #E2152B",
"%. c #E61A26",
"&. c #E41634",
"*. c #F01A29",
"=. c #DD2C2D",
"-. c #DB2429",
";. c #DC342C",
":. c #DC3C2C",
">. c #DE3926",
",. c #DA2C33",
"<. c #D42B3C",
"1. c #D82737",
"2. c #CE3A3C",
"3. c #D63B34",
"4. c #D23B3A",
"5. c #D63437",
"6. c #C7292D",
"7. c #E32324",
"8. c #E62927",
"9. c #F32822",
"0. c #E23423",
"q. c #E23A22",
"w. c #E73628",
"e. c #EC2F2C",
"r. c #B94A09",
"t. c #AD4937",
"y. c #8C592A",
"u. c #DB4A19",
"i. c #D25010",
"p. c #EF4B06",
"a. c #ED440B",
"s. c #EB4C0B",
"d. c #ED4504",
"f. c #F24505",
"g. c #F24C04",
"h. c #F2430A",
"j. c #F74708",
"k. c #EE5406",
"l. c #EF5807",
"z. c #ED5209",
"x. c #EF5E08",
"c. c #E2550D",
"v. c #F15306",
"b. c #F15508",
"n. c #F05B09",
"m. c #F05B07",
"M. c #E64516",
"N. c #E94312",
"B. c #E64C14",
"V. c #E3431B",
"C. c #E34B1C",
"Z. c #E94913",
"A. c #F84917",
"S. c #E45217",
"D. c #EE610A",
"F. c #E16B09",
"G. c #F0620B",
"H. c #ED761A",
"J. c #DD4425",
"K. c #DD4B24",
"L. c #DB432B",
"P. c #D94B2A",
"I. c #D74A2E",
"U. c #D44435",
"Y. c #D54A33",
"T. c #D1443A",
"R. c #D94231",
"E. c #CE4A2E",
"W. c #E24523",
"Q. c #ED5631",
"!. c #DA7432",
"~. c #E77128",
"^. c #DF6A16",
"/. c #8E114E",
"(. c #BC1757",
"). c #AD0D55",
"_. c #960863",
"`. c #BE0C66",
"'. c #BC0C6B",
"]. c #B60C69",
"[. c #BE1A64",
"{. c #BB1668",
"}. c #AD067C",
"|. c #B50975",
" X c #BA0A72",
".X c #B3067C",
"XX c #B60779",
"oX c #B21171",
"OX c #BF2062",
"+X c #BE2775",
"@X c #A4344C",
"#X c #CF0C4B",
"$X c #CA0D45",
"%X c #D40B44",
"&X c #D10C4A",
"*X c #DC0D41",
"=X c #CB1C4C",
"-X c #D51746",
";X c #CA0E52",
":X c #C50D5D",
">X c #CA0E5A",
",X c #C30B55",
"<X c #D70E56",
"1X c #C9125A",
"2X c #C31B5B",
"3X c #C61755",
"4X c #DF125F",
"5X c #CC234B",
"6X c #CB2B4B",
"7X c #CE2945",
"8X c #D12843",
"9X c #CE3344",
"0X c #CA334A",
"qX c #CB3A46",
"wX c #C2235B",
"eX c #C62854",
"rX c #CE354C",
"tX c #C20D63",
"yX c #C50C68",
"uX c #C41662",
"iX c #CB0C72",
"pX c #C72970",
"aX c #E10E42",
"sX c #8F5259",
"dX c #AD524E",
"fX c #8C6F79",
"gX c #9F695D",
"hX c #D34B49",
"jX c #CD7051",
"kX c #DA6A52",
"lX c #EE8F30",
"zX c #E18822",
"xX c #E68A46",
"cX c #DE9374",
"vX c #9E0C9D",
"bX c #AD0684",
"nX c #AA088B",
"mX c #A90889",
"MX c #B10682",
"NX c #A50993",
"BX c #A10B99",
"VX c #A90991",
"CX c #970AA7",
"ZX c #9A0AA2",
"AX c #9509AC",
"SX c #9408B1",
"DX c #99768B",
"FX c #988693",
"GX c #AB8D94",
"HX c #B98EA6",
"JX c #B7A4B1",
"KX c #D8B1B6",
"LX c #D6A7AA",
"PX c #EBB8C7",
"IX c #D8B8CD",
"UX c #F2D0D5",
/* pixels */
"G.D.D.D.G.x.G.n.n.n.l.l.l.l.b.b.m.v.g.v.v.g.j.g.g.g.j.f.h.E.o + { ) f.j.6.}  .(  .( ^ ' e o - M ' Q W W %.W W %.$.%.$.$.$.$.X.+.",
"G.D.D.D.G.G.x.x.G.n.l.l.k.k.b.l.v.v.v.g.v.g.g.g.j.g.g.f.h.T.o 7 A.>._ / R ( / ( } ^ ^ ' #.@ - 3 %.` W W %.W W $.$.$.$.+.$.+.+.+.",
"D.D.D.D.x.x.n.x.n.n.n.l.m.v.v.v.v.v.v.g.g.g.g.g.f.f.f.g.j.t.. U ) I T A.e (  . .} ^ ` ^ ' i o , Y ' W W ..W %.%.$.%.$.$.$.+.+.+.",
"D.D.D.D.D.D.x.n.n.n.n.b.m.m.v.v.v.g.v.v.g.g.g.g.f.g.d.f.j.V O ! ) _ i J s  .( ^ ^ ' ` ^ ' U + , M Q W *.%.&.%.$.$.$.$.$.+.+.+.X.",
"D.D.D.D.x.x.n.n.l.m.v.m.v.v.v.v.v.g.g.g.g.g.g.j.f.g.h.f.A.a $ / ] _ H # 7 ^ ] ^ ^ ' ` ^ ^ 6.+ - , #.Q %.W $.%.$.$.$.$.$.X.+.X.X.",
"G.G.D.x.x.x.m.l.v.m.v.m.v.v.v.v.v.g.v.g.g.f.g.g.j.h.j.) Q.; & _ ) | ] $ * ^ ^ ` ^ ` ' W Q 7.% - , p Q $.%.%.&...+.$.X.+.+.X.X.X.",
"G.D.x.x.x.m.m.l.l.v.v.v.v.v.v.v.g.v.g.g.j.g.f.f.f.h.f.j.dXo e j.E.s i * + F | ' ^ ` ` W W 9.p - < f #.%...%.+.$.+.+.+.X.X.X.X.o.",
"D.x.x.x.x.m.b.l.v.m.v.b.v.v.v.g.v.g.g.g.g.j.g.j.f.j.) j.sX. P | :.p $ o X X P ^ ` W ^ ` W 9.F - ; , U *...+...@.+.+.+.+.X.X.o.o.",
"D.x.m.x.l.m.l.k.l.v.v.k.v.v.g.v.g.j.g.g.g.j.f.f.j.) j.Q.a . ~ ) ) | J X .   $ 6. .` W ` %.Q E - 1 > l ......@.+.+.+.+.o.X.X.o.%X",
"x.x.l.l.l.v.l.v.l.v.v.v.v.g.v.g.g.g.g.j.j.g.f.f.h.j.f.hX; + } _ ^ _ T   $ * o i Q ` ` W 7.W -.% - < g Y %.+.+.+.+.o.o.X.o.%X%X%X",
"n.x.l.l.l.b.v.b.m.k.v.v.v.g.g.g.g.g.g.f.g.j.f.f.) a.j.dX  & | ] ( | a . $ @ X - Y ' W W W W *.7 - ; : M *.+.+.+.X.X.o.%X%X%X%X%X",
"x.n.l.m.m.v.b.b.v.v.k.v.v.v.g.g.g.g.f.g.f.f.f.f.d./ Q.B . 8 | ( _ :.# . @ # X o p 9.W 7.-.-.*.p - ; > k O.&.+.o.X.*Xo.%X%X%X%X&X",
"m.m.b.m.v.m.b.b.v.v.v.v.g.v.g.g.g.f.f.f.f.h.h.a.a._ kX2 . e _ ( [ R + o X % .   * ..7.%.-.%.%.Y o ; < , N *.&.@.%Xo.%X%X%X%X&X%X",
"m.m.l.l.m.b.v.b.v.v.v.g.g.g.g.g.g.f.g.f.h.h.h.h.) A.dX. . J _ ^ w.B + X   4 B   O Y *.W 7...*.6.+ - < > l +.X.X.o.o.%X%X&X&X&X&X",
"l.l.l.b.m.b.v.v.v.g.g.v.g.g.g.g.f.g.f.f.f.h.) / ( Q.B . o ! ' ( w.5 o X   a HX. . 8 *.%.&...%.&.& - - < d ).X.*X%X%X%X%X&X&X&X#X",
"l.l.v.m.v.v.v.g.v.v.v.g.g.g.g.f.g.f.f.h.d.) / / ) kX3 . + ~ ' ( A.a + X   5 UXB . # 1.7...-...&.i - - ; , N X.$X%X%X&X&X#X;X#X#X",
"l.l.b.b.b.b.v.v.v.v.g.g.g.g.g.f.p.f.) a.a.d.A.( A.sX+ . = } ( ` w.a A +   5 PXDX. O Y e.7.$.&.&.U + ; , > f <Xo.$X&X&X&X&X&X;X;X",
"l.l.b.b.b.v.v.v.g.v.g.g.g.g.d.g.h.f.h.d.h./ ( ) Q.a o o 7 [ } ` | s GX5   a PXJX2 . u &.$...O.&.Y * + < > d ).%X$X&X&X#X;X;X;X;X",
"l.b.b.b.v.v.v.g.v.g.g.g.g.g.f.f.f.g.h.) / ) ( _ dX# . . 8 | ' [ | s JXZ   5 UXPXA . # O.$.1.+.@.&.i - > : d M *X&X#X#X;X;X;X1X;X",
"l.l.l.b.v.v.v.v.g.v.g.g.g.f.f.p.j.h.h.) N./ ) Q.V . X   q ' 8.` | p JXHXX 5 GXPXDX. O U &.O.+.+.aXU ; > : d z &X&X&X;X;X1X>X1X:X",
"m.b.b.v.v.v.g.v.p.v.g.g.g.p.h.h.) d.h._ / ( ] Q.4 . $   F ' 0.` 9.T GXPX; 5 B GXLX; X 4 &.+.o.+.aXY ; - > , d _.&X#X;X;X,X1X>X>X",
"v.m.b.b.v.v.g.g.v.g.g.f.f.f.f.h.h.a.N.) / | ] dX+ X X . P [ ` ` 9.T GXUXB 2 a B PXx . 1 Y &.-Xo.aXU - - , d k N <X<X;X,X1X1X>X:X",
"v.m.b.v.v.g.g.v.v.g.g.g.p.h.h.d.h.h.] ) / | W.s . $ + . J ' 0.7.` Y FXGXB 3 S 5 PXS o o 9 o.o.O.-Xp 1 > > d c /.;X;X>X;X:X:X:X:X",
"m.v.b.b.v.v.v.g.g.g.g.g.d.f.h.) h./ V.( / _ W.5 . $ + o e 9.` 8.9.J FXFXA 2 Z * KXfX-   5 R O.o.X.u : > < : z 4X;X1X;X>X:X:XtXtX",
"b.b.v.v.v.g.v.v.g.g.g.d.h.p.a.d.a.| | / ( ( E.5 . X ; O = 9.-.7.9.E DXFXB 5 DXFXKXDX: * J.I J o.$X; : > d < N 1X1X1X:X:X:X:X`.tX",
"b.v.v.v.g.v.g.v.g.g.g.h.h.d.h.a.a./ } / ] } L.a o + 1 @ $ 6.` -.e.Y A KXfXa S UXPXHX- R ! F 0 Y /.- < > , N :X3X1X,X:X:XtXtXtX`.",
"v.v.v.v.v.g.g.v.g.p.p.d.a.h.h.a.d.] N._ [ } [ T # . - ; O U 9.-.7.6.B UXUXS B PXKXHXa q.F 0 9 E p : , : f ).4X;X1X:X:X:XtX`.`.`.",
"v.v.v.v.v.v.v.p.p.p.p.p.h.a.N.a./ ] } ] [ } | 6.p . 1 # O 4 8.7.8.<.5 IXUXA # KXKXHXT I w = 6 U 4 > , : M tX,X;X:X:XtX`.tXyX`.'.",
"l.v.v.v.v.g.v.p.p.p.p.a.a.a.] / ] / ] } } [ } { R + O 1 + o U e...5.* JXUXDX  HXPXHXt.L 9 = 6 p > > > d N 4X:X>XuXtXtX`.`.`.'. X",
"m.v.v.k.v.v.p.v.s.s.a.p.a.N.a./ ] / [ } [ [ 0.[ =.5 o @ 1 + & 1.+.lXt fXUXGX  A UXHX! G 0 9 r u - > : d ).<XyXtXtXtX`.`.`.'.'. X",
"v.v.v.k.g.v.p.p.h.s.p.a.N.N.] ] ] ] [ } } 0.[ ` ` T o @ $ $ O U hXlXG B UXGX8 t GXjXE q q 9 r < - > : l <X1X`.[.tXtX`.'.'.]. X X",
"v.k.k.p.p.p.p.p.p.s.a.N.a.N.N.] ] { [ } [ ` [ =.[ 2.< o + $ O % !.F.u.a JXcX~.~ P P H 0 0 0 i > - f d M >X,XtXtX`.`.'.'.'.'. X X",
"z.z.k.k.z.p.d.s.d.s.N.a.a.] N.{ { { { } 0.[ -.` ` 8.s o + $ X # zXI r.I T xXjXI H G q w q w ; > - , d /.uXtXtXyX`.`.].'. X XXX|.",
"k.k.p.z.p.z.s.s.s.s.N.N.N.N.] ] { ` { { [ 0.[ 0.;.-.6X> O X X a ~.J 0 r.i.zX!.H q q q e q 0 @ + - > f ).1X`.tX`.yX].'. X XXX|.|.",
"z.z.z.p.z.s.s.s.s.a.a.N.N.] ] ] } { } 0.>.-.8.0.7.-.e.V O $ o D F.~ G L K.!.S.L G F q w 0 0 & o > > M yX:X`.{.`.].'.'. X|.|.|..X",
"v.z.z.z.p.s.s.s.s.N.N.M.M.] { { { } 0.{ 0.0.0.=.8.,.8.R ; X O t H.i.G I i.!.u.H G q F q 6 w 9 - > : N iX`.`.`.'. X X X|.|.|..X.X",
"z.z.s.s.s.s.s.s.Z.a.M.M.] { { { 0.{ 0.>.0.=.=.8.,.,.7.,.V o . X y i.L ! ^.!.u.H G y F w 0 0 9 ; - : _.uX`.tX'.'. X X|.XXXX.X.X.X",
"z.s.s.z.s.N.B.N.Z.M.M.] M.{ { { { >.>.0.0.=.=.=.1.1.&.&.7X2 . o O 6 r.u.Q.E.u.I L H F F e 0 r * - f `.`.yX'. X].|.|.|.XX.X.X.X}.",
"c.z.z.s.s.s.s.M.M.M.{ M.M.{ { { { 0.0.=.;.=.,.-.,.1.,.1.&.V O $   $ r.~.~.S.u.E.! ! 6.E E F r & : z iX]. XyX X|.XX|..X.X.XMX}.bX",
"s.z.s.s.s.s.M.s.N.M.M.{ { { q.q.0.0.0.>.=.=.=.,.8.@.-.1.8XrX3 $ y.zXF.I I L H H F G e w e 8 r & : N iX]. X X X|.|.XX.X.XMXMX}.MX",
"s.s.s.B.B.Z.M.M.M.M.{ V.{ q.q.q.>.>.;.;.=.=.,.,.1.&.8X..<.*XdXzXF.i.I ~ I I L G H q q r r 9 8 4 , _.iX]. X|. X|..X.X.X}.bXbXbXbX",
"s.c.s.B.B.Z.B.M.M.M.V.{ q.{ q.0.>.>.=.w.=.,.,.,.1.1.,.1.-XhXzXx.i.i.i.L H q q e q q 0 0 0 0 7 ; f _.'.]. XXXXX|.XX.X.X.XMXbXbXbX",
"s.s.B.s.B.B.M.u.V.V.V.q.W.q.>.>.>.;.=.;.,.8.,.1.1.1.<.@.hXlXi.S.i.y 6 = $ 9 9 = @ 9 i = % % - : z  X]. X|.XXXX.X.X.XMXbXbXbXnXnX",
"s.c.B.B.B.M.M.M.V.V.{ { q.q.>.>.=.;.;.,.,.,.1.1.8X&.8X<XxXH.c.K t 6 9   o q 9 % % p i 9 - ; - > M iX]. X|.XX.X.X}.}.bXbXbXmXnXnX",
"z.B.B.Z.M.V.M.M.V.V.>.u.>.:.>.;.;.;.,.,.,.5.1.<.<.@.-XhXlXi.r.q G G %   & p H % & i i 9 ; ; + : _.iX}. XXX.X.X.XbXbXbXbXmXnXnXnX",
"S.B.B.C.B.u.V.u.W.W.J.>.:.>.;.:.;.;.5.,.,.1.8X1.8X<.O.rXlXd.i.i.~ 7 o . 8 b J r % i r 9 < - - d }..X}.XX.XMXMXbXbXmXbXmXnXVXNXNX",
"S.B.Z.B.V.C.W.V.W.q.>.:.:.>.;.;.5.;.,.<.1.1.<.8X<.8X<.eXlXzXF.E.O.N X $ T b K y % 9 r 7 > - - l |.|.XXXX.X}.}.bXbXbXmXmXVXVXNXNX",
"B.B.B.C.C.C.W.u.W.J.W.J.:.>.:.;.5.,.5.1.<.<.1.8X8X-X5X-X6XhXrX&X3X2X$ % dXb p H 7 = q 4 < ; : M iX}..X.X}.MXMXbXmXmXmXnXVXVXNXVX",
"S.C.C.C.C.V.W.W.J.q.q.:.:.:.5.5.5.,.<.<.<.<.8X8X=X8X=X=X=X;X=X;X(.4X4 u dX5 7 P 0 6 G - < < : N XX.X.XMXbXbXbXbXmXnXnXNXNXNXBXNX",
"S.B.C.C.K.V.K.J.J.L.L.:.3.:.;.3.,.5.5.<.<.<.8X8X8X=X=X=X=X3X3X3X(.4XN s sXM & L L I u , < < : _.XX.X.XMXbXbXbXmXnXVXnXNXNXBXBXBX",
"S.K.W.K.u.K.J.J.J.L.:.:.:.:.5.5.5.5.<.<.<.<.7X8X5X5X=X=X=X3X3X3X=X3X/.t.S i % 6 N.q ; g < > d .X.X.X}.bXmXbXmXmXnXnXNXNXNXBXBXBX",
"S.S.K.C.K.K.J.P.L.:.:.3.3.3.5.5.5.<.9X<.7X7X7X5X=X5X=X=X3X3X3X2X1X1X:XjXB u & ; t & 3 g < > f bXMX}.bXbXmXmXmXmXVXNXNXNXBXBXvXBX",
"K.S.K.K.K.P.J.L.L.L.3.3.3.3.5.5.<.9X8X8X7X8X5X5X5X=X3X=X3X2X:X(.[.:X3XjXB 5 i + o i g d f > j }.MXMXbXnXmXnXnXNXNXNXNXBXBXBXBXZX",
"S.K.K.K.P.W.R.W.L.3.R.3.5.5.5.9X2.<.9X7X7X5XeX5X=X5X=XeX3X2X2XuX[.{.OXjXb b i % i 4 v g k < f }.MXMXbXnXnXnXnXNXBXNXBXBXvXZXvXZX",
"K.K.K.K.P.P.L.R.3.R.R.4.4.5.4.9X9X9X7X7X6X5X5X5XeX=X3X3X2X2X:X(.uXuXpXgX5 v u p 2 g v , l d f bXMXmXnXnXVXVXNXNXNXBXBXvXvXvXZXZX",
"K.K.K.P.K.P.R.R.R.R.3.3.4.4.5.9X9X9X9X7X6X6X5X5X3XeX3X(.2X2XuX[.uXuXpXgXb v g < v v g u i j j mXbXnXnXnXVXVXvXNXBXBXBXvXvXZXZXZX",
"K.P.P.P.P.L.I.I.U.3.T.4.4.4.9X9X0X0X6X6X6XeX5XwXeX3XwXuX(.2X[.{.{.'.pXgXv h c v v v 4 i z j n bXnXnXnXnXNXBXBXBXBXBXvXZXZXCXZXCX",
"K.K.P.P.I.I.U.U.3.T.4.4.4.9X9X9X0X0X6X6X6X5XeX3X3XwX2XwXuX[.[.yX[.iX+XgXb h l v < d 4 i z m m mXnXnXNXNXNXNXBXBXvXvXvXvXZXZXZXCX",
"P.P.I.I.U.U.U.4.T.T.4.4.4.9X9X9X0X0XeX0XeX5XeXeXwX2XuX(.[.[.{.{.oX].pXsXb h g h g j z i z j m nXnXNXNXNXNXvXBXvXvXvXCXZXZXCXCXCX",
"P.P.I.I.I.U.T.T.T.3.qX4.qXqX9X9X0X0X0XeXeXeXwXwX2XwX2X[.[.[.{.+X{.'.+XZ x c h h l l z u z n m VXNXNXNXNXNXvXBXvXvXvXZXZXCXCXCXAX",
"P.I.I.Y.T.T.T.T.T.2.qXqXqXqX0X0X0XeXeX0XeXeXwXwXwXOX2X[.uX{.{.uX'. X+XfXc z x k 4 z z z c n m VXNXNXNXvXBXvXvXvXZXZXZXCXCXCXAXAX",
"I.I.I.Y.E.E.T.E.hX2.hXqXqXqX0X0XeXhXeXeXwXeXwXOXOXOX[.[.[.[.oXoXoX|.+XZ x c h g l l l z c m m VXvXNXNXvXBXZXvXZXZXCXCXCXAXAXSXSX",
"Y.Y.Y.Y.T.T.T.T.2.qX0XqXqXqX0X0XrXOXeXeXeXwXOXOXOXOX[.{.{.oXoX{.]..XpXZ c c h x n j j l l n m VXNXvXvXvXvXvXvXZXZXAXZXAXAXAXAXSX",
"Y.Y.Y.Y.T.T.hXT.2.hXhXqX0X0X0XeXrXeX@XeXwXwXOXOXOX{.+X{. XpXoXoXoXbXMXA b b v c 4 M c l c n m mXBXNXvXvXvXZXZXZXZXCXAXAXAXSXSXSX"
};
